<svg width="100%" height="100%" viewBox="0 0 701 180" fill="none" xmlns="http://www.w3.org/2000/svg">
<path d="M116.109 123.2C116.109 127.333 115.375 130.4 113.909 132.4C112.442 134.4 110.109 136.333 106.909 138.2C105.042 139.267 102.709 140.333 99.9086 141.4C97.1086 142.333 94.0419 143.133 90.7086 143.8C87.3753 144.6 83.8419 145.2 80.1086 145.6C76.5086 146 72.9086 146.2 69.3086 146.2C59.7086 146.2 50.7086 144.933 42.3086 142.4C33.9086 139.733 26.5753 135.8 20.3086 130.6C14.1753 125.267 9.30859 118.667 5.70859 110.8C2.10859 102.933 0.308594 93.8 0.308594 83.4C0.308594 72.4667 2.24193 62.9333 6.10859 54.8C10.1086 46.6667 15.3086 39.9333 21.7086 34.6C28.2419 29.1333 35.6419 25.0667 43.9086 22.4C52.3086 19.7333 60.9086 18.4 69.7086 18.4C82.3753 18.4 92.3753 20.4667 99.7086 24.6C107.175 28.6 110.909 33.8667 110.909 40.4C110.909 43.8667 110.042 46.8667 108.309 49.4C106.575 51.9333 104.575 53.9333 102.309 55.4C98.9753 53.4 94.7753 51.4667 89.7086 49.6C84.7753 47.6 79.1753 46.6 72.9086 46.6C61.7086 46.6 52.7753 49.8 46.1086 56.2C39.5753 62.6 36.3086 71.4667 36.3086 82.8C36.3086 88.9333 37.1753 94.2667 38.9086 98.8C40.7753 103.2 43.2419 106.867 46.3086 109.8C49.3753 112.6 52.9086 114.733 56.9086 116.2C60.9086 117.533 65.1753 118.2 69.7086 118.2C72.6419 118.2 75.2419 117.933 77.5086 117.4C79.7753 116.867 81.5086 116.267 82.7086 115.6V96.8H61.3086C60.5086 95.3333 59.7086 93.4 58.9086 91C58.2419 88.6 57.9086 86.0667 57.9086 83.4C57.9086 78.6 58.9753 75.1333 61.1086 73C63.3753 70.8667 66.2419 69.8 69.7086 69.8H103.509C107.509 69.8 110.575 70.9333 112.709 73.2C114.975 75.3333 116.109 78.4 116.109 82.4V123.2ZM170.521 142.8C169.188 143.2 167.054 143.6 164.121 144C161.321 144.4 158.388 144.6 155.321 144.6C152.388 144.6 149.721 144.4 147.321 144C145.054 143.6 143.121 142.8 141.521 141.6C139.921 140.4 138.654 138.8 137.721 136.8C136.921 134.667 136.521 131.933 136.521 128.6V68.6C136.521 65.5333 137.054 62.9333 138.121 60.8C139.321 58.5333 140.988 56.5333 143.121 54.8C145.254 53.0667 147.854 51.5333 150.921 50.2C154.121 48.7333 157.521 47.4667 161.121 46.4C164.721 45.3333 168.454 44.5333 172.321 44C176.188 43.3333 180.054 43 183.921 43C190.321 43 195.388 44.2667 199.121 46.8C202.854 49.2 204.721 53.2 204.721 58.8C204.721 60.6667 204.454 62.5333 203.921 64.4C203.388 66.1333 202.721 67.7333 201.921 69.2C199.121 69.2 196.254 69.3333 193.321 69.6C190.388 69.8667 187.521 70.2667 184.721 70.8C181.921 71.3333 179.254 71.9333 176.721 72.6C174.321 73.1333 172.254 73.8 170.521 74.6V142.8ZM266.437 146.2C258.57 146.2 251.237 145.133 244.437 143C237.77 140.733 231.903 137.4 226.837 133C221.903 128.6 217.97 123.067 215.037 116.4C212.237 109.733 210.837 101.933 210.837 93C210.837 84.2 212.237 76.6667 215.037 70.4C217.97 64 221.77 58.8 226.437 54.8C231.103 50.6667 236.437 47.6667 242.437 45.8C248.437 43.8 254.57 42.8 260.837 42.8C267.903 42.8 274.303 43.8667 280.037 46C285.903 48.1333 290.903 51.0667 295.037 54.8C299.303 58.5333 302.57 63 304.837 68.2C307.237 73.4 308.437 79.0667 308.437 85.2C308.437 89.7333 307.17 93.2 304.637 95.6C302.103 98 298.57 99.5333 294.037 100.2L244.637 107.6C246.103 112 249.103 115.333 253.637 117.6C258.17 119.733 263.37 120.8 269.237 120.8C274.703 120.8 279.837 120.133 284.637 118.8C289.57 117.333 293.57 115.667 296.637 113.8C298.77 115.133 300.57 117 302.037 119.4C303.503 121.8 304.237 124.333 304.237 127C304.237 133 301.437 137.467 295.837 140.4C291.57 142.667 286.77 144.2 281.437 145C276.103 145.8 271.103 146.2 266.437 146.2ZM260.837 67.6C257.637 67.6 254.837 68.1333 252.437 69.2C250.17 70.2667 248.303 71.6667 246.837 73.4C245.37 75 244.237 76.8667 243.437 79C242.77 81 242.37 83.0667 242.237 85.2L276.437 79.6C276.037 76.9333 274.57 74.2667 272.037 71.6C269.503 68.9333 265.77 67.6 260.837 67.6ZM376.202 146.2C368.336 146.2 361.002 145.133 354.202 143C347.536 140.733 341.669 137.4 336.602 133C331.669 128.6 327.736 123.067 324.802 116.4C322.002 109.733 320.602 101.933 320.602 93C320.602 84.2 322.002 76.6667 324.802 70.4C327.736 64 331.536 58.8 336.202 54.8C340.869 50.6667 346.202 47.6667 352.202 45.8C358.202 43.8 364.336 42.8 370.602 42.8C377.669 42.8 384.069 43.8667 389.802 46C395.669 48.1333 400.669 51.0667 404.802 54.8C409.069 58.5333 412.336 63 414.602 68.2C417.002 73.4 418.202 79.0667 418.202 85.2C418.202 89.7333 416.936 93.2 414.402 95.6C411.869 98 408.336 99.5333 403.802 100.2L354.402 107.6C355.869 112 358.869 115.333 363.402 117.6C367.936 119.733 373.136 120.8 379.002 120.8C384.469 120.8 389.602 120.133 394.402 118.8C399.336 117.333 403.336 115.667 406.402 113.8C408.536 115.133 410.336 117 411.802 119.4C413.269 121.8 414.002 124.333 414.002 127C414.002 133 411.202 137.467 405.602 140.4C401.336 142.667 396.536 144.2 391.202 145C385.869 145.8 380.869 146.2 376.202 146.2ZM370.602 67.6C367.402 67.6 364.602 68.1333 362.202 69.2C359.936 70.2667 358.069 71.6667 356.602 73.4C355.136 75 354.002 76.8667 353.202 79C352.536 81 352.136 83.0667 352.002 85.2L386.202 79.6C385.802 76.9333 384.336 74.2667 381.802 71.6C379.269 68.9333 375.536 67.6 370.602 67.6ZM433.768 18.8C433.768 13.7333 435.435 9.46666 438.768 5.99999C442.235 2.53333 446.768 0.799995 452.368 0.799995C457.968 0.799995 462.435 2.53333 465.768 5.99999C469.235 9.46666 470.968 13.7333 470.968 18.8C470.968 23.8667 469.235 28.1333 465.768 31.6C462.435 35.0667 457.968 36.8 452.368 36.8C446.768 36.8 442.235 35.0667 438.768 31.6C435.435 28.1333 433.768 23.8667 433.768 18.8ZM469.368 142.8C467.901 143.067 465.701 143.4 462.768 143.8C459.968 144.333 457.101 144.6 454.168 144.6C451.235 144.6 448.568 144.4 446.168 144C443.901 143.6 441.968 142.8 440.368 141.6C438.768 140.4 437.501 138.8 436.568 136.8C435.768 134.667 435.368 131.933 435.368 128.6V47.2C436.835 46.9333 438.968 46.6 441.768 46.2C444.701 45.6667 447.635 45.4 450.568 45.4C453.501 45.4 456.101 45.6 458.368 46C460.768 46.4 462.768 47.2 464.368 48.4C465.968 49.6 467.168 51.2667 467.968 53.4C468.901 55.4 469.368 58.0667 469.368 61.4V142.8ZM552.613 81.4C552.613 77.2667 551.413 74.2667 549.013 72.4C546.747 70.4 543.613 69.4 539.613 69.4C536.947 69.4 534.28 69.7333 531.613 70.4C529.08 71.0667 526.88 72.0667 525.013 73.4V142.8C523.68 143.2 521.547 143.6 518.613 144C515.813 144.4 512.88 144.6 509.813 144.6C506.88 144.6 504.213 144.4 501.813 144C499.547 143.6 497.613 142.8 496.013 141.6C494.413 140.4 493.147 138.8 492.213 136.8C491.413 134.667 491.013 131.933 491.013 128.6V68.6C491.013 65 491.747 62.0667 493.213 59.8C494.813 57.5333 496.947 55.4667 499.613 53.6C504.147 50.4 509.813 47.8 516.613 45.8C523.547 43.8 531.213 42.8 539.613 42.8C554.68 42.8 566.28 46.1333 574.413 52.8C582.547 59.3333 586.613 68.4667 586.613 80.2V142.8C585.28 143.2 583.147 143.6 580.213 144C577.413 144.4 574.48 144.6 571.413 144.6C568.48 144.6 565.813 144.4 563.413 144C561.147 143.6 559.213 142.8 557.613 141.6C556.013 140.4 554.747 138.8 553.813 136.8C553.013 134.667 552.613 131.933 552.613 128.6V81.4ZM655.015 42.8C662.615 42.8 669.482 43.8 675.615 45.8C681.882 47.6667 687.148 50.1333 691.415 53.2C694.082 55.0667 696.148 57.1333 697.615 59.4C699.215 61.6667 700.015 64.6 700.015 68.2V138.2C700.015 145.267 698.682 151.333 696.015 156.4C693.348 161.6 689.682 165.867 685.015 169.2C680.482 172.667 675.082 175.2 668.815 176.8C662.682 178.4 656.082 179.2 649.015 179.2C636.882 179.2 627.348 177.533 620.415 174.2C613.482 171 610.015 165.733 610.015 158.4C610.015 155.333 610.615 152.6 611.815 150.2C613.148 147.933 614.615 146.2 616.215 145C620.082 147.133 624.415 148.933 629.215 150.4C634.148 151.867 639.215 152.6 644.415 152.6C651.615 152.6 657.348 151.4 661.615 149C665.882 146.6 668.015 142.733 668.015 137.4V134.2C662.548 136.6 655.882 137.8 648.015 137.8C642.015 137.8 636.282 136.933 630.815 135.2C625.482 133.333 620.748 130.533 616.615 126.8C612.615 122.933 609.348 118 606.815 112C604.415 106 603.215 98.8667 603.215 90.6C603.215 82.4667 604.482 75.4 607.015 69.4C609.682 63.4 613.282 58.4667 617.815 54.6C622.482 50.6 627.948 47.6667 634.215 45.8C640.615 43.8 647.548 42.8 655.015 42.8ZM667.415 71.8C666.482 71.2667 665.082 70.7333 663.215 70.2C661.482 69.6667 659.282 69.4 656.615 69.4C650.082 69.4 645.148 71.2667 641.815 75C638.615 78.6 637.015 83.8 637.015 90.6C637.015 98.3333 638.615 103.933 641.815 107.4C645.148 110.733 649.348 112.4 654.415 112.4C659.882 112.4 664.215 111.133 667.415 108.6V71.8Z" fill="#5DD886"/>
</svg>
