<svg width="24" height="24" viewBox="0 0 24 24" fill="none" xmlns="http://www.w3.org/2000/svg">
<path fill-rule="evenodd" clip-rule="evenodd" d="M16.5997 10.6499C16.5997 13.9359 13.9359 16.5997 10.6499 16.5997C7.36392 16.5997 4.7001 13.9359 4.7001 10.6499C4.7001 7.36392 7.36392 4.7001 10.6499 4.7001C13.9359 4.7001 16.5997 7.36392 16.5997 10.6499ZM15.4406 16.4853C14.1373 17.5566 12.4687 18.1997 10.6499 18.1997C6.48026 18.1997 3.1001 14.8195 3.1001 10.6499C3.1001 6.48026 6.48026 3.1001 10.6499 3.1001C14.8195 3.1001 18.1997 6.48026 18.1997 10.6499C18.1997 12.4609 17.562 14.123 16.499 15.4239L20.1005 19.025C20.2338 19.1583 20.3005 19.325 20.3005 19.525C20.3005 19.725 20.2255 19.9 20.0755 20.05C19.9255 20.2 19.7465 20.275 19.5385 20.275C19.3298 20.275 19.1588 20.2 19.0255 20.05L15.4406 16.4853Z" fill="#222223"/>
</svg>
