<svg width="529" height="261" viewBox="0 0 529 261" fill="none" xmlns="http://www.w3.org/2000/svg">
<path d="M193.4 166.2C188.6 164 185 160.9 182.6 156.9C180.4 152.7 180.3 147.6 182.3 141.6C184.3 134.8 185.9 128.5 187.1 122.7C188.3 116.9 189.1 111.3 189.5 105.9C189.9 100.5 190.1 95 190.1 89.4C190.3 83.8 190.4 77.7 190.4 71.1V48H48.2C42.6 48 38 47.5 34.4 46.5C30.8 45.3 28 43.8 26 42C24 40 22.6 37.8 21.8 35.4C21.2 32.8 20.9 30 20.9 27C20.9 24.6 21.2 22.2 21.8 19.8C22.6 17.2 24 15 26 13.2C28 11.2 30.8 9.59998 34.4 8.39999C38 7.19999 42.6 6.59999 48.2 6.59999H217.1C222.5 6.59999 226.7 7.19999 229.7 8.39999C232.7 9.39999 235 10.9 236.6 12.9C238.2 14.7 239.2 17 239.6 19.8C240 22.6 240.2 25.8 240.2 29.4V68.4C240.2 78 240 87.3 239.6 96.3C239.4 105.1 238.7 113.4 237.5 121.2C236.5 128.8 234.9 135.9 232.7 142.5C230.7 149.1 227.8 154.9 224 159.9C222 162.7 219.7 164.8 217.1 166.2C214.5 167.4 211.8 168.2 209 168.6C206.2 169 203.4 169 200.6 168.6C198 168 195.6 167.2 193.4 166.2ZM28.1 253.8C22.5 253.8 17.9 253.2 14.3 252C10.7 250.8 7.9 249.2 5.9 247.2C3.9 245.4 2.5 243.2 1.7 240.6C1.1 238.2 0.800001 235.8 0.800001 233.4C0.800001 230.4 1.1 227.6 1.7 225C2.5 222.6 3.9 220.4 5.9 218.4C7.9 216.6 10.7 215.1 14.3 213.9C17.9 212.9 22.5 212.4 28.1 212.4H236.6C242.2 212.4 246.8 212.9 250.4 213.9C254 215.1 256.8 216.6 258.8 218.4C260.8 220.4 262.1 222.6 262.7 225C263.5 227.6 263.9 230.4 263.9 233.4C263.9 235.8 263.5 238.2 262.7 240.6C262.1 243.2 260.8 245.4 258.8 247.2C256.8 249.2 254 250.8 250.4 252C246.8 253.2 242.2 253.8 236.6 253.8H28.1ZM350.659 261C341.259 260.8 333.259 259.3 326.659 256.5C320.059 253.7 314.759 250 310.759 245.4C306.759 241 303.859 235.8 302.059 229.8C300.259 223.8 299.359 217.3 299.359 210.3C299.359 203.3 300.159 196.8 301.759 190.8C303.359 184.6 306.059 179.2 309.859 174.6C313.859 170 319.159 166.4 325.759 163.8C332.559 161.2 341.059 159.8 351.259 159.6H476.659C486.859 159.6 495.259 160.9 501.859 163.5C508.659 166.1 513.959 169.7 517.759 174.3C521.759 178.9 524.559 184.3 526.159 190.5C527.759 196.7 528.559 203.3 528.559 210.3C528.559 217.3 527.659 223.8 525.859 229.8C524.059 235.8 521.059 241 516.859 245.4C512.859 250 507.559 253.7 500.959 256.5C494.559 259.3 486.659 260.8 477.259 261H350.659ZM463.759 221.1C469.559 221.1 473.759 220.4 476.359 219C478.959 217.8 480.259 214.9 480.259 210.3C480.259 205.5 478.959 202.5 476.359 201.3C473.759 199.9 469.559 199.2 463.759 199.2H364.159C358.359 199.2 354.159 199.9 351.559 201.3C348.959 202.5 347.659 205.5 347.659 210.3C347.659 214.9 348.959 217.8 351.559 219C354.159 220.4 358.359 221.1 364.159 221.1H463.759ZM316.159 144.9C310.559 144.9 306.159 144.4 302.959 143.4C299.759 142.4 297.259 141.1 295.459 139.5C293.859 137.7 292.859 135.6 292.459 133.2C292.059 130.8 291.859 128.1 291.859 125.1V79.2C291.859 75.4 292.059 72 292.459 69C292.859 65.8 293.859 63.2 295.459 61.2C297.259 59 299.759 57.4 302.959 56.4C306.159 55.2 310.559 54.6 316.159 54.6H372.559V41.7H319.159C313.559 41.7 308.959 41.2 305.359 40.2C301.759 39.2 298.959 37.8 296.959 36C294.959 34.2 293.559 32.2 292.759 30C292.159 27.6 291.859 25.2 291.859 22.8C291.859 19.8 292.159 17.1 292.759 14.7C293.559 12.3 294.959 10.2 296.959 8.39999C298.959 6.59999 301.759 5.19999 305.359 4.19999C308.959 3.19999 313.559 2.69999 319.159 2.69999H396.859C402.459 2.69999 406.859 3.29999 410.059 4.49998C413.259 5.49998 415.659 6.99999 417.259 9C419.059 10.8 420.159 13 420.559 15.6C420.959 18 421.159 20.7 421.159 23.7V67.8C421.159 71.6 420.959 75.1 420.559 78.3C420.159 81.3 419.059 83.9 417.259 86.1C415.659 88.1 413.259 89.7 410.059 90.9C406.859 91.9 402.459 92.4 396.859 92.4H340.459V106.5H402.259C407.859 106.5 412.459 107 416.059 108C419.659 109 422.459 110.4 424.459 112.2C426.459 113.8 427.759 115.8 428.359 118.2C429.159 120.4 429.559 122.7 429.559 125.1C429.559 128.1 429.159 130.8 428.359 133.2C427.759 135.6 426.459 137.7 424.459 139.5C422.459 141.1 419.659 142.4 416.059 143.4C412.459 144.4 407.859 144.9 402.259 144.9H316.159ZM500.659 151.8C497.459 151.8 494.359 151.4 491.359 150.6C488.559 149.8 485.959 148.4 483.559 146.4C481.359 144.4 479.559 141.7 478.159 138.3C476.959 134.9 476.359 130.6 476.359 125.4V26.1C476.359 16.1 478.759 9.29999 483.559 5.69999C488.559 1.89999 494.259 -1.14441e-05 500.659 -1.14441e-05C503.859 -1.14441e-05 506.859 0.399989 509.659 1.19999C512.659 1.99999 515.259 3.39999 517.459 5.39999C519.659 7.39999 521.459 10.1 522.859 13.5C524.259 16.9 524.959 21.1 524.959 26.1V125.4C524.959 130.6 524.259 134.9 522.859 138.3C521.459 141.7 519.659 144.4 517.459 146.4C515.259 148.4 512.659 149.8 509.659 150.6C506.859 151.4 503.859 151.8 500.659 151.8Z" fill="#5DD886"/>
</svg>
